<?xml version="1.0" standalone="no"?>
<!DOCTYPE svg PUBLIC "-//W3C//DTD SVG 20010904//EN"
 "http://www.w3.org/TR/2001/REC-SVG-20010904/DTD/svg10.dtd">
<svg version="1.0" xmlns="http://www.w3.org/2000/svg"
 width="512.000000pt" height="512.000000pt" viewBox="0 0 512.000000 512.000000"
 preserveAspectRatio="xMidYMid meet">
<metadata>
Created by potrace 1.11, written by Peter Selinger 2001-2013
</metadata>
<g transform="translate(0.000000,512.000000) scale(0.100000,-0.100000)"
fill="#000000" stroke="none">
<path d="M0 2560 l0 -2560 2560 0 2560 0 0 2560 0 2560 -2560 0 -2560 0 0
-2560z m2933 1798 c176 -96 320 -177 320 -180 2 -5 -149 -269 -273 -478 -87
-147 -65 -140 -419 -140 -262 0 -300 2 -331 18 -29 14 -52 46 -134 187 -54 94
-131 225 -171 292 l-73 122 191 105 c106 57 255 138 332 181 194 106 159 112
558 -107z m-1220 -380 c258 -438 281 -482 281 -528 1 -40 -14 -71 -144 -294
-87 -149 -156 -258 -173 -270 -27 -20 -40 -21 -330 -21 l-302 0 -22 120 c-34
190 -53 358 -59 515 -8 206 -30 180 321 370 116 63 244 133 285 156 41 23 78
43 82 43 4 1 31 -41 61 -91z m1881 20 c441 -241 513 -281 528 -300 32 -37 37
-83 27 -237 -11 -167 -31 -327 -61 -488 l-20 -113 -287 0 c-366 1 -340 -9
-443 166 -205 352 -220 382 -220 424 1 34 28 89 168 330 93 160 170 290 172
290 2 0 63 -32 136 -72z m-705 -683 c27 -16 61 -67 168 -250 164 -284 166
-289 159 -329 -9 -47 -270 -495 -311 -533 l-35 -33 -305 0 c-333 0 -344 2
-383 57 -11 16 -53 87 -94 158 -41 72 -101 174 -132 228 -82 143 -85 132 80
417 75 129 149 248 165 265 39 40 72 43 389 41 246 -1 267 -2 299 -21z m-1235
-689 c45 -19 63 -44 215 -310 93 -162 131 -238 131 -261 0 -29 -75 -167 -289
-534 l-43 -73 -50 73 c-131 195 -277 468 -365 683 -38 92 -153 417 -153 432 0
2 117 4 260 4 200 0 268 -3 294 -14z m2356 4 c0 -17 -89 -275 -132 -385 -83
-211 -235 -500 -365 -697 -58 -87 -67 -97 -78 -81 -6 10 -81 137 -165 283
-186 323 -183 298 -70 490 214 364 214 364 250 382 31 16 68 18 298 18 174 0
262 -3 262 -10z m-1102 -727 c23 -24 106 -156 216 -346 l177 -308 -110 -123
c-194 -217 -511 -508 -585 -536 -81 -30 -142 8 -425 270 -114 105 -361 373
-361 392 0 8 246 441 340 598 14 25 41 55 60 68 32 22 38 22 341 22 l308 0 39
-37z"/>
</g>
</svg>
